<?xml version="1.0" standalone="no"?>
<!DOCTYPE svg PUBLIC "-//W3C//DTD SVG 20010904//EN"
 "http://www.w3.org/TR/2001/REC-SVG-20010904/DTD/svg10.dtd">
<svg version="1.0" xmlns="http://www.w3.org/2000/svg"
 width="250.000000pt" height="250.000000pt" viewBox="0 0 250.000000 250.000000"
 preserveAspectRatio="xMidYMid meet">
<metadata>
Created by potrace 1.14, written by Peter Selinger 2001-2017
</metadata>
<g transform="translate(0.000000,250.000000) scale(0.100000,-0.100000)"
fill="#000000" stroke="none">
<path d="M1073 2361 c-1 -11 6 -21 18 -24 32 -8 21 -27 -15 -27 -19 0 -38 -4
-41 -10 -3 -5 -17 -10 -31 -10 -14 0 -41 -7 -62 -16 -20 -9 -53 -18 -72 -21
-38 -6 -50 -17 -50 -50 0 -12 -4 -25 -10 -28 -5 -3 -10 -16 -9 -28 0 -12 3
-16 6 -9 2 6 12 12 21 12 14 0 57 12 107 30 51 18 95 29 148 35 47 5 57 10 57
26 0 23 41 26 60 4 7 -8 21 -15 31 -15 11 0 19 -7 19 -15 0 -13 9 -16 45 -15
3 0 21 -7 41 -15 46 -19 64 -19 64 0 0 9 30 -15 67 -52 46 -47 65 -61 61 -45
-10 36 30 29 43 -8 10 -27 15 -32 35 -29 3 0 11 -6 17 -14 7 -7 37 -19 67 -26
74 -17 110 -34 148 -71 18 -16 32 -27 32 -23 0 5 5 0 11 -9 5 -10 14 -18 20
-18 5 0 19 -9 31 -19 11 -11 26 -17 32 -15 7 3 19 -2 26 -11 16 -19 30 -20 30
-1 0 7 -13 16 -29 19 -18 4 -32 14 -36 27 -3 11 -12 20 -20 20 -7 0 -13 6 -12
13 1 42 -5 55 -33 67 -19 8 -33 23 -40 46 -7 21 -18 34 -29 34 -19 0 -46 28
-56 59 -6 20 -45 31 -45 13 0 -5 -7 -9 -15 -9 -8 0 -15 6 -15 14 0 21 -46 39
-64 24 -16 -14 -40 -6 -31 10 4 5 -1 12 -10 15 -9 4 -21 18 -26 31 -5 14 -18
27 -29 30 -11 3 -20 9 -20 13 0 4 -15 10 -32 13 -18 4 -70 12 -116 20 -45 7
-88 19 -94 25 -7 7 -26 12 -43 12 -19 0 -39 8 -50 20 -20 22 -51 26 -58 8 -4
-10 -6 -10 -6 0 -2 20 -37 14 -38 -7z"/>
<path d="M648 2092 c-10 -2 -18 -10 -18 -18 0 -20 -30 -30 -40 -13 -7 10 -13
8 -31 -11 -14 -17 -23 -21 -26 -12 -6 15 -33 16 -33 2 0 -6 -20 -40 -45 -77
-25 -36 -45 -68 -46 -72 -3 -28 -10 -44 -27 -66 -11 -14 -23 -43 -27 -65 -4
-22 -11 -40 -16 -40 -5 0 -9 -7 -9 -15 0 -9 -6 -18 -14 -21 -18 -7 -30 -88
-17 -111 10 -17 11 -16 17 5 3 12 11 22 17 22 6 0 8 3 4 6 -5 6 11 30 49 70
12 12 24 30 28 39 3 9 15 19 26 22 17 5 39 43 29 51 -2 2 10 12 28 23 19 12
34 32 38 50 4 16 10 29 14 29 13 0 71 53 71 65 0 7 6 15 14 18 8 3 20 22 27
41 7 20 17 36 21 36 13 0 9 27 -4 37 -7 5 -21 8 -30 5z"/>
<path d="M716 2088 c-9 -5 -16 -19 -16 -30 0 -21 0 -21 16 -2 8 10 12 13 9 6
-6 -11 -3 -12 14 -3 11 7 21 18 21 25 0 15 -21 17 -44 4z"/>
<path d="M1181 1968 c0 -15 -9 -32 -18 -38 -15 -9 -13 -10 12 -6 25 4 36 -2
68 -36 20 -22 37 -43 37 -48 0 -4 9 -10 20 -13 13 -3 20 0 20 9 0 17 -103 124
-118 124 -6 0 -13 8 -15 18 -3 10 -5 7 -6 -10z"/>
<path d="M1138 1903 c7 -3 16 -2 19 1 4 3 -2 6 -13 5 -11 0 -14 -3 -6 -6z"/>
<path d="M1148 1711 c-21 -21 -38 -42 -38 -47 0 -11 -36 -44 -49 -44 -5 0 -14
-13 -21 -30 -7 -16 -21 -32 -31 -35 -10 -4 -31 -18 -46 -33 -16 -15 -40 -33
-54 -41 -15 -7 -33 -24 -40 -37 -7 -13 -16 -24 -20 -24 -13 0 -100 -92 -94
-99 3 -3 9 -1 13 5 6 9 39 25 52 25 3 0 9 7 13 15 4 8 15 14 23 14 8 0 13 4 9
9 -3 5 10 15 30 22 20 8 30 16 24 20 -7 4 -3 10 12 14 13 4 29 14 37 21 19 20
69 18 81 -3 14 -26 42 -6 60 43 8 21 18 41 22 44 4 3 11 18 14 33 4 15 11 27
15 27 4 0 11 11 14 25 8 32 33 23 41 -16 4 -16 10 -29 15 -29 5 0 11 -14 15
-30 4 -17 11 -28 16 -24 5 3 9 -4 9 -15 0 -36 12 -51 40 -51 16 0 32 5 35 10
10 17 54 11 75 -10 11 -11 25 -20 30 -20 6 0 10 -5 10 -11 0 -5 5 -7 10 -4 6
3 10 1 10 -5 0 -6 11 -15 25 -20 14 -5 25 -14 25 -19 0 -5 11 -12 25 -15 14
-4 25 -11 25 -16 0 -6 5 -10 10 -10 21 0 8 30 -22 51 -18 13 -36 29 -41 36
-10 17 -29 35 -61 58 -15 11 -39 30 -52 43 -14 12 -31 22 -38 22 -12 0 -30 28
-26 39 1 2 -15 15 -34 29 -20 14 -36 29 -36 34 0 11 -78 88 -87 87 -5 -1 -25
-18 -45 -38z"/>
<path d="M1925 1591 c-3 -5 -1 -12 5 -16 5 -3 10 1 10 9 0 18 -6 21 -15 7z"/>
<path d="M1934 1544 c3 -9 6 -18 6 -20 0 -2 8 -4 18 -3 10 0 12 3 5 6 -7 2
-13 11 -13 19 0 8 -5 14 -11 14 -6 0 -8 -7 -5 -16z"/>
<path d="M2151 1485 c1 -36 5 -67 10 -71 11 -6 12 -66 3 -153 -7 -59 -8 -61
-35 -61 -22 0 -29 -5 -29 -19 0 -10 -7 -24 -15 -31 -9 -7 -14 -19 -11 -27 3
-7 0 -13 -7 -13 -25 0 -57 -68 -57 -120 0 -38 -4 -50 -15 -50 -9 0 -18 -6 -21
-14 -3 -8 -19 -20 -35 -26 -16 -7 -29 -19 -29 -27 0 -11 -7 -13 -24 -9 -20 5
-28 1 -40 -21 -24 -44 -53 -106 -60 -125 -3 -10 -14 -18 -24 -18 -11 0 -30
-18 -46 -45 -16 -25 -33 -45 -38 -45 -15 0 -38 -27 -38 -45 0 -9 -9 -28 -19
-42 -11 -13 -17 -31 -14 -39 3 -8 0 -14 -6 -14 -6 0 -11 -4 -11 -8 0 -5 7 -9
15 -9 8 0 15 4 15 9 0 5 16 16 35 24 23 9 33 19 29 29 -4 8 1 17 10 21 9 3 16
13 16 21 0 8 13 20 29 26 16 6 32 19 35 30 2 10 14 21 25 24 12 3 21 9 21 14
0 4 18 27 40 49 22 22 40 45 40 50 0 5 15 13 33 18 21 5 37 18 47 38 22 44 52
79 80 94 14 7 29 19 33 26 4 8 14 14 22 14 8 0 21 17 30 38 9 20 23 50 31 65
8 16 14 35 14 43 0 8 5 14 11 14 32 0 62 69 47 109 -5 14 -7 60 -6 104 2 58
-1 82 -9 84 -7 3 -13 12 -14 21 0 10 -3 12 -6 5 -3 -10 -7 -10 -17 -1 -8 8
-11 32 -9 70 4 53 3 58 -16 58 -18 0 -20 -6 -20 -65z m23 -301 c17 -7 22 -44
6 -44 -5 0 -10 -9 -10 -20 0 -12 -7 -20 -16 -20 -13 0 -15 8 -10 43 3 23 5 43
5 45 1 3 8 2 25 -4z m-59 -124 c4 -6 1 -9 -7 -8 -7 2 -12 -3 -10 -9 1 -7 -2
-13 -8 -13 -5 0 -10 2 -10 4 0 2 -3 11 -6 20 -4 11 0 16 14 16 12 0 24 -5 27
-10z"/>
<path d="M257 1513 c-4 -3 -7 -14 -7 -24 0 -10 -12 -30 -27 -44 -15 -14 -22
-25 -15 -25 6 0 12 -4 12 -10 0 -5 -7 -10 -15 -10 -20 0 -41 -40 -25 -50 6 -4
12 -21 12 -39 l1 -31 19 30 c10 17 18 40 18 52 0 11 14 47 30 80 28 54 31 78
11 78 -4 0 -11 -3 -14 -7z"/>
<path d="M1951 1494 c0 -11 3 -14 6 -6 3 7 2 16 -1 19 -3 4 -6 -2 -5 -13z"/>
<path d="M1986 1471 c-14 -5 -16 -10 -8 -15 7 -4 10 -11 7 -16 -3 -4 2 -13 10
-20 8 -7 15 -23 15 -36 0 -12 6 -26 13 -31 24 -15 37 -11 37 13 0 13 -4 24 -9
24 -5 0 -11 9 -14 20 -3 11 -12 20 -20 20 -10 0 -13 8 -9 25 2 14 3 25 1 24
-2 0 -13 -4 -23 -8z"/>
<path d="M1940 1259 c-7 -26 -29 -58 -63 -93 -49 -49 -99 -107 -115 -133 -9
-15 -109 -126 -189 -211 -35 -36 -63 -72 -63 -80 0 -7 -4 -10 -10 -7 -5 3 -10
2 -10 -3 0 -5 -11 -22 -25 -38 -14 -16 -25 -38 -24 -49 1 -16 3 -15 12 8 6 15
16 27 22 27 14 0 105 86 105 100 0 5 5 10 10 10 6 0 10 4 10 9 0 9 96 108 191
198 53 49 79 80 79 92 0 6 5 11 10 11 6 0 10 6 10 13 0 6 16 30 36 52 43 48
52 68 46 106 -6 41 -19 36 -32 -12z"/>
<path d="M414 1219 c3 -19 12 -38 19 -44 7 -5 16 -18 20 -28 4 -10 11 -15 17
-12 5 3 10 -1 10 -9 0 -8 8 -21 18 -28 10 -7 21 -21 25 -31 4 -10 11 -16 16
-13 5 3 12 -5 15 -19 4 -14 13 -25 21 -25 8 0 15 -4 15 -8 0 -19 181 -212 199
-212 6 0 10 -3 9 -7 -3 -17 18 -47 76 -108 33 -35 82 -87 108 -115 26 -27 52
-50 58 -50 26 0 5 42 -51 101 -72 76 -251 266 -331 353 -31 33 -69 77 -85 96
-15 19 -54 60 -85 92 -32 31 -58 63 -58 71 0 9 -5 19 -12 23 -8 5 -9 -2 -4
-27z"/>
<path d="M1334 1237 c-6 -7 -14 -34 -18 -60 -4 -26 -11 -47 -15 -47 -5 0 -11
-19 -15 -41 -4 -23 -15 -61 -26 -85 -11 -23 -20 -48 -20 -53 0 -6 -4 -11 -10
-11 -5 0 -12 -16 -16 -35 -3 -19 -10 -35 -15 -35 -5 0 -9 -8 -10 -17 0 -13 -3
-11 -12 7 -6 14 -14 27 -18 30 -4 3 -10 20 -14 38 -3 17 -10 32 -14 32 -4 0
-14 25 -21 55 -7 30 -17 55 -21 55 -4 0 -11 20 -15 45 -3 25 -10 45 -14 45 -4
0 -10 18 -14 40 -7 44 -31 54 -60 24 -22 -21 -21 -26 17 -65 23 -24 36 -48 41
-79 4 -24 11 -47 16 -50 8 -5 30 -114 30 -152 0 -20 -34 -25 -45 -8 -7 12 -85
53 -85 45 0 -14 30 -54 81 -104 31 -31 62 -67 69 -81 14 -26 17 -30 55 -73 14
-15 25 -23 25 -18 0 10 26 44 63 83 9 10 17 22 17 27 0 5 27 36 60 69 33 34
60 66 60 72 0 5 4 10 8 10 5 0 14 11 20 25 10 21 9 23 -6 18 -9 -3 -31 -17
-49 -29 -35 -27 -53 -30 -71 -12 -16 16 -15 69 2 93 7 11 16 37 20 58 12 62
42 121 70 136 30 17 33 29 9 47 -22 17 -45 17 -59 1z"/>
<path d="M1534 1123 c-3 -10 -14 -38 -25 -62 -19 -41 -18 -74 1 -41 5 8 22 30
39 49 35 39 39 56 15 65 -22 9 -24 8 -30 -11z"/>
<path d="M804 1105 c-5 -20 0 -32 21 -53 l28 -27 -6 40 c-4 22 -7 46 -7 53 0
23 -30 12 -36 -13z"/>
<path d="M270 1060 c0 -5 -7 -10 -15 -10 -17 0 -20 -16 -5 -25 16 -10 11 -43
-7 -48 -13 -3 -8 -7 14 -12 18 -4 32 -10 31 -14 -3 -14 22 -61 33 -61 8 0 10
-12 6 -35 -6 -38 0 -45 47 -55 26 -5 31 -10 31 -35 0 -25 7 -33 42 -50 30 -14
44 -28 48 -47 5 -20 13 -28 29 -28 12 0 27 -5 34 -12 20 -20 26 0 12 42 -8 23
-21 42 -33 46 -16 5 -17 8 -6 15 10 6 11 9 2 9 -7 0 -13 5 -13 10 0 6 -11 23
-25 38 -14 15 -25 32 -25 38 0 6 -6 17 -14 23 -11 9 -15 9 -20 -1 -3 -7 -3 -2
0 11 7 27 -13 71 -32 71 -8 0 -11 6 -8 14 4 10 -5 16 -28 21 -18 4 -41 13 -52
20 -17 13 -17 13 3 17 16 2 18 7 11 18 -9 13 -11 13 -21 0 -9 -13 -10 -12 -5
3 3 10 0 25 -8 33 -17 16 -26 18 -26 4z m95 -110 c-3 -5 -12 -7 -20 -3 -21 7
-19 13 6 13 11 0 18 -4 14 -10z"/>
<path d="M1390 620 c0 -6 -6 -10 -14 -10 -8 0 -19 -14 -25 -31 -9 -27 -8 -30
5 -25 9 3 20 6 25 6 6 0 7 5 4 10 -3 6 0 13 9 16 21 8 27 31 10 38 -8 3 -14 1
-14 -4z"/>
<path d="M575 600 c-3 -5 1 -10 10 -10 9 0 13 5 10 10 -3 6 -8 10 -10 10 -2 0
-7 -4 -10 -10z"/>
<path d="M673 523 c-18 -7 -16 -20 2 -20 8 0 15 6 15 14 0 7 -1 13 -2 12 -2 0
-9 -3 -15 -6z"/>
<path d="M698 475 c-5 -22 -2 -25 23 -25 l29 0 -22 25 c-12 14 -23 25 -24 25
-1 0 -4 -11 -6 -25z"/>
<path d="M770 430 c0 -14 -7 -20 -21 -20 -30 0 -18 -24 14 -28 19 -2 27 1 27
12 0 9 7 16 15 16 20 0 19 10 -2 26 -25 19 -33 17 -33 -6z"/>
<path d="M1539 408 c-8 -7 -21 -22 -29 -33 -10 -15 -10 -17 -1 -8 7 6 20 9 27
6 14 -5 29 18 22 37 -2 7 -8 6 -19 -2z"/>
<path d="M1465 353 c-22 -4 -72 -83 -52 -83 20 1 70 47 63 58 -3 6 0 12 6 15
19 6 6 13 -17 10z"/>
<path d="M840 310 c6 -11 13 -20 15 -20 3 0 5 9 5 20 0 11 -7 20 -15 20 -13 0
-14 -4 -5 -20z"/>
<path d="M1075 173 c2 -10 4 -21 4 -25 2 -16 43 -30 54 -19 8 8 5 11 -11 11
-34 0 -29 38 6 43 19 3 15 4 -15 6 -34 1 -41 -2 -38 -16z"/>
</g>
</svg>
